Coordinates
nRows=124
nColumns=2
inDegrees=yes
endheader
time	ankle_angle_r	
4.24973	 28.533936	
4.31222	 28.611971	
4.37472	 28.597885	
4.43722	 28.571121	
4.49971	 28.555028	
4.56221	 28.527322	
4.6247	 28.516244	
4.6872	 28.501902	
4.7497	 28.518629	
4.81219	 28.579134	
4.87469	 28.595589	
4.93718	 28.590865	
4.99968	 28.568185	
5.06218	 28.514480	
5.12467	 28.510231	
5.18717	 28.527414	
5.24966	 28.558609	
5.31216	 28.615379	
5.37466	 28.616655	
5.43715	 28.604718	
5.49965	 28.598818	
5.56214	 28.549682	
5.62464	 28.505160	
5.68714	 28.488540	
5.74963	 28.517316	
5.81213	 28.580993	
5.87462	 28.619819	
5.93712	 28.633654	
5.99962	 28.610232	
6.06211	 28.562363	
6.12461	 28.538668	
6.1871	 28.543464	
6.2496	 28.595068	
6.3121	 28.641415	
6.37459	 28.613318	
6.43709	 28.585735	
6.49958	 28.576268	
6.56208	 28.528551	
6.62458	 28.509184	
6.68707	 28.556553	
6.74957	 28.594091	
6.81206	 28.601693	
6.87456	 28.592554	
6.93706	 28.550967	
6.99955	 28.519069	
7.06205	 28.514337	
7.12454	 28.507761	
7.18704	 28.540528	
7.24954	 28.587906	
7.31203	 28.592426	
7.37453	 28.596845	
7.43702	 28.576761	
7.49952	 28.531711	
7.56202	 28.539909	
7.62451	 28.570352	
7.68701	 28.592976	
7.7495	 28.589349	
7.812	 28.564639	
7.8745	 28.586972	
7.93699	 28.586319	
7.99949	 28.536398	
8.06198	 28.511468	
8.12448	 28.488016	
8.18698	 28.516116	
8.24947	 28.596501	
8.31197	 28.618869	
8.37446	 28.623211	
8.43696	 28.629056	
8.49946	 28.587228	
8.56195	 28.528113	
8.62445	 28.509862	
8.68694	 28.561124	
8.74944	 28.593477	
8.81194	 28.574539	
8.87443	 28.592253	
8.93693	 28.597258	
8.99942	 28.546718	
9.06192	 28.521502	
9.12442	 28.555654	
9.18691	 28.605758	
9.24941	 28.601213	
9.3119	 28.564810	
9.3744	 28.546784	
9.4369	 28.520914	
9.49939	 28.494563	
9.56189	 28.486625	
9.62438	 28.524029	
9.68688	 28.593456	
9.74938	 28.612863	
9.81187	 28.612334	
9.87437	 28.605297	
9.93686	 28.544179	
9.99936	 28.489881	
10.0619	 28.486550	
10.1244	 28.533460	
10.1868	 28.583401	
10.2493	 28.588010	
10.3118	 28.599416	
10.3743	 28.577319	
10.4368	 28.518366	
10.4993	 28.518855	
10.5618	 28.511741	
10.6243	 28.503763	
10.6868	 28.561784	
10.7493	 28.587725	
10.8118	 28.567703	
10.8743	 28.560296	
10.9368	 28.547468	
10.9993	 28.513742	
11.0618	 28.491563	
11.1243	 28.514909	
11.1868	 28.548582	
11.2493	 28.564211	
11.3118	 28.560173	
11.3743	 28.529311	
11.4368	 28.522377	
11.4993	 28.568545	
11.5618	 28.624205	
11.6243	 28.642347	
11.6868	 28.614332	
11.7492	 28.589055	
11.8117	 28.580587	
11.8742	 28.569799	
11.9367	 28.579532	
